<svg width="26" height="26" viewBox="0 0 26 26" fill="none" xmlns="http://www.w3.org/2000/svg">
<path d="M24.0417 25.5C21.1481 25.5 18.2894 24.8694 15.4653 23.6083C12.6412 22.3472 10.0718 20.5588 7.75694 18.2431C5.44213 15.9273 3.65417 13.3579 2.39306 10.5347C1.13194 7.71157 0.500926 4.85278 0.5 1.95833C0.5 1.54167 0.638889 1.19444 0.916667 0.916667C1.19444 0.638889 1.54167 0.5 1.95833 0.5H7.58333C7.90741 0.5 8.19676 0.610185 8.45139 0.830555C8.70602 1.05093 8.85648 1.31111 8.90278 1.61111L9.80556 6.47222C9.85185 6.84259 9.84028 7.15509 9.77083 7.40972C9.70139 7.66435 9.57407 7.88426 9.38889 8.06944L6.02083 11.4722C6.4838 12.3287 7.03333 13.156 7.66944 13.9542C8.30555 14.7523 9.00602 15.5222 9.77083 16.2639C10.4884 16.9815 11.2407 17.6472 12.0278 18.2611C12.8148 18.875 13.6481 19.4361 14.5278 19.9444L17.7917 16.6806C18 16.4722 18.2722 16.3162 18.6083 16.2125C18.9444 16.1088 19.2741 16.0796 19.5972 16.125L24.3889 17.0972C24.713 17.1898 24.9792 17.3579 25.1875 17.6014C25.3958 17.8449 25.5 18.1167 25.5 18.4167V24.0417C25.5 24.4583 25.3611 24.8056 25.0833 25.0833C24.8056 25.3611 24.4583 25.5 24.0417 25.5Z" fill="black" fill-opacity="0.8"/>
</svg>
