<svg width="22" height="22" viewBox="0 0 22 22" fill="none" xmlns="http://www.w3.org/2000/svg">
<path fill-rule="evenodd" clip-rule="evenodd" d="M7.06565 4.31641C7.61202 4.31641 8.05494 4.75933 8.05494 5.3057V7.28428C8.05494 7.83065 7.61202 8.27357 7.06565 8.27357C6.51928 8.27357 6.07635 7.83065 6.07635 7.28428V5.3057C6.07635 4.75933 6.51928 4.31641 7.06565 4.31641Z" stroke="#092257" stroke-width="1.5" stroke-linecap="round" stroke-linejoin="round"/>
<path d="M18.9371 6.29492H8.05493" stroke="#092257" stroke-width="1.5" stroke-linecap="round" stroke-linejoin="round"/>
<path d="M6.07636 6.29492H3.10849" stroke="#092257" stroke-width="1.5" stroke-linecap="round" stroke-linejoin="round"/>
<path fill-rule="evenodd" clip-rule="evenodd" d="M7.06565 14.2095C7.61202 14.2095 8.05494 14.6524 8.05494 15.1988V17.1773C8.05494 17.7237 7.61202 18.1666 7.06565 18.1666C6.51928 18.1666 6.07635 17.7237 6.07635 17.1773V15.1988C6.07635 14.6524 6.51928 14.2095 7.06565 14.2095Z" stroke="#092257" stroke-width="1.5" stroke-linecap="round" stroke-linejoin="round"/>
<path d="M18.9371 16.188H8.05493" stroke="#092257" stroke-width="1.5" stroke-linecap="round" stroke-linejoin="round"/>
<path d="M6.07636 16.188H3.10849" stroke="#092257" stroke-width="1.5" stroke-linecap="round" stroke-linejoin="round"/>
<path fill-rule="evenodd" clip-rule="evenodd" d="M14.98 9.2627C15.5264 9.2627 15.9693 9.70562 15.9693 10.252V12.2306C15.9693 12.7769 15.5264 13.2199 14.98 13.2199C14.4336 13.2199 13.9907 12.7769 13.9907 12.2306V10.252C13.9907 9.70562 14.4336 9.2627 14.98 9.2627Z" stroke="#092257" stroke-width="1.5" stroke-linecap="round" stroke-linejoin="round"/>
<path d="M13.9907 11.2412H3.10849" stroke="#092257" stroke-width="1.5" stroke-linecap="round" stroke-linejoin="round"/>
<path d="M18.9371 11.2412H15.9693" stroke="#092257" stroke-width="1.5" stroke-linecap="round" stroke-linejoin="round"/>
</svg>
