<svg width="62" height="62" viewBox="0 0 62 62" fill="none" xmlns="http://www.w3.org/2000/svg">
<g filter="url(#filter0_d_11108_11748)">
<rect x="6" width="50" height="50" rx="25" fill="#0ACA00" shape-rendering="crispEdges"/>
<path d="M25.9316 37.2088C28.4187 38.5141 29.6623 39.1666 31 39.1666V24.9999L17.7372 18.0195C17.7177 18.0509 17.6985 18.0826 17.6797 18.1146C16.8333 19.5518 16.8333 21.3402 16.8333 24.9171V25.0828C16.8333 28.6596 16.8333 30.4482 17.6797 31.8854C18.526 33.3226 20.0501 34.1224 23.0983 35.722L25.9316 37.2088Z" fill="white"/>
<path opacity="0.7" d="M38.9013 14.2781L36.068 12.7913C33.5809 11.4861 32.3373 10.8335 30.9996 10.8335C29.6618 10.8335 28.4183 11.4861 25.9311 12.7913L23.0978 14.2781C20.1175 15.8421 18.5941 16.6416 17.7368 18.0197L30.9996 25.0002L44.2624 18.0197C43.4049 16.6416 41.8816 15.8421 38.9013 14.2781Z" fill="white"/>
<path opacity="0.5" d="M44.3203 18.1146C44.3015 18.0826 44.2824 18.0509 44.2628 18.0195L31 24.9999V39.1666C32.3378 39.1666 33.5813 38.5141 36.0684 37.2088L38.9017 35.722C41.95 34.1224 43.474 33.3226 44.3203 31.8854C45.1667 30.4482 45.1667 28.6596 45.1667 25.0828V24.9171C45.1667 21.3402 45.1667 19.5518 44.3203 18.1146Z" fill="white"/>
<path d="M22.9581 14.3521C23.0046 14.3277 23.0515 14.3031 23.0987 14.2783L25.2145 13.168L38.1073 20.259L43.8075 17.4089C44.0026 17.6298 44.1722 17.8625 44.3208 18.115C44.5327 18.4748 44.6915 18.8567 44.8107 19.2832L39.1463 22.1153V26.417C39.1463 27.0038 38.6706 27.4795 38.0838 27.4795C37.497 27.4795 37.0213 27.0038 37.0213 26.417V23.1778L32.0629 25.6569V39.031C31.699 39.1217 31.353 39.167 31.0004 39.167C30.648 39.167 30.3019 39.1217 29.9379 39.031V25.6569L17.1903 19.2832C17.3094 18.8567 17.4682 18.4748 17.6801 18.115C17.8288 17.8625 17.9983 17.6298 18.1934 17.4089L31.0004 23.8124L35.7976 21.4138L22.9581 14.3521Z" fill="white"/>
</g>
<defs>
<filter id="filter0_d_11108_11748" x="0" y="0" width="62" height="62" filterUnits="userSpaceOnUse" color-interpolation-filters="sRGB">
<feFlood flood-opacity="0" result="BackgroundImageFix"/>
<feColorMatrix in="SourceAlpha" type="matrix" values="0 0 0 0 0 0 0 0 0 0 0 0 0 0 0 0 0 0 127 0" result="hardAlpha"/>
<feOffset dy="6"/>
<feGaussianBlur stdDeviation="3"/>
<feComposite in2="hardAlpha" operator="out"/>
<feColorMatrix type="matrix" values="0 0 0 0 0 0 0 0 0 0 0 0 0 0 0 0 0 0 0.25 0"/>
<feBlend mode="normal" in2="BackgroundImageFix" result="effect1_dropShadow_11108_11748"/>
<feBlend mode="normal" in="SourceGraphic" in2="effect1_dropShadow_11108_11748" result="shape"/>
</filter>
</defs>
</svg>
