<svg width="30" height="30" viewBox="0 0 30 30" fill="none" xmlns="http://www.w3.org/2000/svg">
<path d="M5.61074 20.1973H5.606C5.3633 20.1973 5.16895 20.394 5.16895 20.6367C5.16895 20.8794 5.36805 21.0762 5.61074 21.0762C5.72729 21.0762 5.83907 21.0299 5.92148 20.9475C6.0039 20.865 6.0502 20.7533 6.0502 20.6367C6.0502 20.5202 6.0039 20.4084 5.92148 20.326C5.83907 20.2436 5.72729 20.1973 5.61074 20.1973ZM9.3683 20.1973H9.36361C9.12092 20.1973 8.9265 20.394 8.9265 20.6367C8.9265 20.8794 9.1256 21.0762 9.3683 21.0762C9.48485 21.0762 9.59663 21.0299 9.67904 20.9475C9.76145 20.865 9.80775 20.7533 9.80775 20.6367C9.80775 20.5202 9.76145 20.4084 9.67904 20.326C9.59663 20.2436 9.48485 20.1973 9.3683 20.1973ZM24.8682 20.1973H24.8635C24.6208 20.1973 24.4264 20.394 24.4264 20.6367C24.4264 20.8794 24.6255 21.0762 24.8682 21.0762C24.9848 21.0762 25.0965 21.0299 25.179 20.9475C25.2614 20.865 25.3077 20.7533 25.3077 20.6367C25.3077 20.5202 25.2614 20.4084 25.179 20.326C25.0965 20.2436 24.9848 20.1973 24.8682 20.1973Z" fill="black"/>
<path d="M29.5961 14.884L29.0053 14.2932L27.8149 10.7221C27.9148 10.6903 28.0001 10.6239 28.0553 10.5347C28.1105 10.4456 28.132 10.3396 28.1159 10.236C28.0999 10.1324 28.0473 10.0379 27.9677 9.96969C27.888 9.90145 27.7867 9.86393 27.6818 9.86391H23.4243V7.95504C23.4243 7.45371 23.0165 7.0459 22.5152 7.0459H0.909141C0.407812 7.0459 0 7.45377 0 7.95504V18.2883C0 18.7896 0.407812 19.1974 0.909141 19.1974H1.40906V20.1668C1.40906 20.6681 1.81687 21.0759 2.3182 21.0759H3.33018C3.53619 22.1447 4.47809 22.9547 5.60607 22.9547C6.37846 22.9547 7.06336 22.5746 7.48482 21.9921C7.90635 22.5746 8.59125 22.9547 9.36363 22.9547C10.4916 22.9547 11.4336 22.1447 11.6395 21.0759H22.5877C22.7937 22.1447 23.7356 22.9547 24.8636 22.9547C26.1418 22.9547 27.1818 21.9147 27.1818 20.6365C27.1818 20.6264 27.1811 20.6165 27.181 20.6065H29.0908C29.5921 20.6065 29.9999 20.1987 29.9999 19.6973V15.859C30.0005 15.6778 29.965 15.4984 29.8957 15.3311C29.8264 15.1637 29.7246 15.0118 29.5961 14.884ZM3.33018 20.1971H2.3182C2.31423 20.1971 2.3103 20.1963 2.30663 20.1948C2.30296 20.1933 2.29963 20.191 2.29682 20.1882C2.29402 20.1854 2.29179 20.1821 2.29027 20.1784C2.28875 20.1748 2.28797 20.1708 2.28797 20.1669V19.1975H3.79061C3.55881 19.4887 3.40085 19.8316 3.33018 20.1971ZM5.60607 22.0759C4.81242 22.0759 4.16678 21.4302 4.16678 20.6366C4.16678 19.846 4.80762 19.2024 5.59711 19.1975H5.61516C6.40465 19.2023 7.04549 19.8459 7.04549 20.6366C7.04543 21.4302 6.39973 22.0759 5.60607 22.0759ZM9.36369 22.0759C8.57004 22.0759 7.92434 21.4302 7.92434 20.6366C7.92434 19.846 8.56518 19.2024 9.35467 19.1975H9.37271C10.1622 19.2023 10.803 19.8459 10.803 20.6366C10.803 21.4302 10.1573 22.0759 9.36369 22.0759ZM22.5877 20.1971H11.6396C11.5689 19.8316 11.4109 19.4887 11.1791 19.1974H19.6969C19.8135 19.1974 19.9253 19.1511 20.0077 19.0687C20.0901 18.9863 20.1364 18.8745 20.1364 18.758C20.1364 18.6414 20.0901 18.5296 20.0077 18.4472C19.9253 18.3648 19.8135 18.3185 19.6969 18.3185H0.909141C0.901122 18.3185 0.893432 18.3153 0.887762 18.3097C0.882092 18.304 0.878906 18.2963 0.878906 18.2883V7.95504C0.878906 7.93834 0.892441 7.9248 0.909141 7.9248H22.5151C22.5318 7.9248 22.5453 7.93834 22.5453 7.95504V18.3186H21.5759C21.4594 18.3186 21.3476 18.3649 21.2652 18.4473C21.1828 18.5297 21.1365 18.6415 21.1365 18.758C21.1365 18.8746 21.1828 18.9864 21.2652 19.0688C21.3476 19.1512 21.4594 19.1975 21.5759 19.1975H23.0481C22.8163 19.4887 22.6584 19.8316 22.5877 20.1971ZM28.168 14.5608H25.3333C25.3253 14.5608 25.3176 14.5576 25.3119 14.5519C25.3063 14.5463 25.3031 14.5386 25.3031 14.5305V12.6215H27.5216L28.168 14.5608ZM24.8636 22.0759C24.07 22.0759 23.4243 21.4302 23.4243 20.6366C23.4243 19.846 24.0652 19.2024 24.8546 19.1975H24.8637L24.8667 19.1973C25.659 19.1989 26.303 19.8439 26.303 20.6365C26.3029 21.4302 25.6573 22.0759 24.8636 22.0759ZM29.1211 19.6975C29.1211 19.7055 29.1179 19.7132 29.1122 19.7188C29.1066 19.7245 29.0989 19.7277 29.0909 19.7277H26.996C26.6418 18.8999 25.8195 18.3184 24.8636 18.3184C24.8606 18.3184 24.8576 18.3186 24.8546 18.3186H23.4243V10.773C23.4243 10.7563 23.4378 10.7428 23.4545 10.7428H26.8953L27.2286 11.7426H24.8636C24.7471 11.7426 24.6353 11.7889 24.5529 11.8713C24.4705 11.9537 24.4242 12.0655 24.4242 12.1821V14.5305C24.4242 15.0319 24.832 15.4397 25.3333 15.4397H28.9088L28.9747 15.5055C29.0212 15.5519 29.0581 15.607 29.0833 15.6676C29.1084 15.7283 29.1213 15.7934 29.1211 15.859V16.9095H28.6212C28.5046 16.9095 28.3928 16.9558 28.3104 17.0382C28.228 17.1206 28.1817 17.2324 28.1817 17.349C28.1817 17.4655 28.228 17.5773 28.3104 17.6597C28.3928 17.7421 28.5046 17.7884 28.6212 17.7884H29.1211V19.6975Z" fill="black"/>
<path d="M21.1062 16.4395H2.31836C2.20181 16.4395 2.09003 16.4858 2.00762 16.5682C1.92521 16.6506 1.87891 16.7624 1.87891 16.8789C1.87891 16.9955 1.92521 17.1072 2.00762 17.1896C2.09003 17.2721 2.20181 17.3184 2.31836 17.3184H21.1062C21.2227 17.3184 21.3345 17.2721 21.4169 17.1896C21.4993 17.1072 21.5456 16.9955 21.5456 16.8789C21.5456 16.7624 21.4993 16.6506 21.4169 16.5682C21.3345 16.4858 21.2227 16.4395 21.1062 16.4395Z" fill="black"/>
</svg>
