<svg width="30" height="30" viewBox="0 0 30 30" fill="none" xmlns="http://www.w3.org/2000/svg">
<path fill-rule="evenodd" clip-rule="evenodd" d="M2.75512 19.2138H1.87299C1.74883 19.2138 1.62978 19.1644 1.54198 19.0766C1.45419 18.9889 1.40484 18.8698 1.40479 18.7456V7.97699C1.40479 7.71856 1.61456 7.50879 1.87299 7.50879H28.0923C28.3507 7.50879 28.5605 7.71856 28.5605 7.97699V17.341C28.5605 17.5995 28.3507 17.8092 28.0923 17.8092H27.1559V19.2138C27.1559 19.4723 26.9461 19.682 26.6877 19.682H23.8785V21.5549C23.8785 21.8133 23.6687 22.0231 23.4103 22.0231C23.1519 22.0231 22.9421 21.8133 22.9421 21.5549V19.682H20.1329C20.0087 19.682 19.8897 19.6326 19.8019 19.5448C19.7141 19.4571 19.6647 19.338 19.6647 19.2138V17.8092H17.5741L16.7768 19.0055C16.734 19.0696 16.6761 19.1222 16.6081 19.1585C16.5402 19.1949 16.4643 19.2139 16.3873 19.2138H15.5651C15.5684 19.2715 15.5697 19.3299 15.5697 19.3885C15.5697 21.1007 14.1797 22.4913 12.467 22.4913C10.7548 22.4913 9.36422 21.1007 9.36422 19.3885C9.36422 19.33 9.36568 19.2715 9.36894 19.2138H8.95074C8.954 19.2715 8.9558 19.3299 8.9558 19.3885C8.9558 21.1007 7.56523 22.4913 5.85254 22.4913C4.1404 22.4913 2.74984 21.1007 2.74984 19.3885C2.74984 19.33 2.75175 19.2715 2.75512 19.2138ZM5.85276 17.2222C7.04849 17.2222 8.0195 18.1927 8.0195 19.3885C8.0195 20.5842 7.04849 21.5549 5.85276 21.5549C4.65737 21.5549 3.68636 20.5843 3.68636 19.3886C3.68636 18.1928 4.65748 17.2222 5.85276 17.2222ZM12.467 17.2222C13.6628 17.2222 14.6333 18.1927 14.6333 19.3885C14.6333 20.5842 13.6628 21.5549 12.467 21.5549C11.2713 21.5549 10.3006 20.5843 10.3006 19.3886C10.3006 18.1928 11.2713 17.2222 12.467 17.2222ZM5.85276 17.9244C5.04501 17.9244 4.38872 18.5804 4.38872 19.3885C4.38872 20.1965 5.04501 20.8525 5.85276 20.8525C6.66085 20.8525 7.31726 20.1967 7.31726 19.3885C7.31726 18.5803 6.66085 17.9244 5.85276 17.9244ZM12.467 17.9244C11.6588 17.9244 11.003 18.5804 11.003 19.3885C11.003 20.1965 11.6588 20.8525 12.467 20.8525C13.2752 20.8525 13.9311 20.1967 13.9311 19.3885C13.9311 18.5803 13.2751 17.9244 12.467 17.9244ZM5.85276 18.8608C6.14445 18.8608 6.38085 19.0972 6.38085 19.3885C6.37737 19.5262 6.32023 19.6571 6.2216 19.7532C6.12298 19.8494 5.99068 19.9032 5.85293 19.9032C5.71518 19.9032 5.58289 19.8494 5.48426 19.7532C5.38564 19.6571 5.32849 19.5262 5.32501 19.3885C5.32507 19.2485 5.38069 19.1143 5.47966 19.0154C5.57862 18.9164 5.71282 18.8608 5.85276 18.8608ZM12.467 18.8608C12.7583 18.8608 12.9947 19.0972 12.9947 19.3885C12.9947 19.6797 12.7583 19.9162 12.467 19.9162C12.1758 19.9162 11.9394 19.6797 11.9394 19.3885C11.9394 19.0972 12.1758 18.8608 12.467 18.8608ZM26.2195 17.8092H20.6011V18.7456H26.2195V17.8092ZM15.3647 18.2774H16.1368L16.9341 17.0811C16.9769 17.017 17.0348 16.9645 17.1028 16.9282C17.1707 16.8918 17.2466 16.8728 17.3237 16.8728H27.6241V10.7862H2.34119V11.7226H23.8785C24.1369 11.7226 24.3467 11.9324 24.3467 12.1908C24.3467 12.4492 24.1369 12.659 23.8785 12.659H2.34119V13.5954H20.5084C20.7668 13.5954 20.9766 13.8052 20.9766 14.0636C20.9766 14.322 20.7668 14.5318 20.5084 14.5318H2.34119V18.2774H2.95501C3.40265 17.1131 4.53186 16.2858 5.85276 16.2858C7.174 16.2858 8.30332 17.1131 8.75052 18.2774H9.56928C10.0169 17.1131 11.1462 16.2858 12.467 16.2858C13.7883 16.2858 14.9175 17.1131 15.3647 18.2774ZM2.34119 9.8498V8.44519H27.6241V9.8498H2.34119Z" fill="black"/>
</svg>
